# AST/ASF file generated using VICON BodyLanguage
# -----------------------------------------------
:version 1.10
:name VICON
:units
  mass 1.0
  length 0.45
  angle deg
:documentation
   .ast/.asf automatically generated from VICON data using
   VICON BodyBuilder and BodyLanguage model FoxedUp or BRILLIANT.MOD
:root
   order TX TY TZ RX RY RZ
   axis XYZ
   position 0 0 0  
   orientation 0 0 0 
:bonedata
  begin
     id 1 
     name lhipjoint
     direction 0.575328 -0.747301 0.332475 
     length 2.40933 
     axis 0 0 0  XYZ
  end
  begin
     id 2 
     name lfemur
     direction 0.34202 -0.939693 0  
     length 7.31453  
     axis 0 0 20  XYZ
    dof rx ry rz
    limits (-160.0 20.0)
           (-70.0 70.0)
           (-60.0 70.0)
  end
  begin
     id 3 
     name ltibia
     direction 0.34202 -0.939693 0   
     length 7.82185   
     axis 0 0 20   XYZ
    dof rx
    limits (-10.0 170.0)
  end
  begin
     id 4 
     name lfoot
     direction 0.0795993 -0.218697 0.972541   
     length 2.19173   
     axis -90 7.62852e-016 20   XYZ
    dof rx rz
    limits (-45.0 90.0)
           (-70.0 20.0)
  end
  begin
     id 5 
     name ltoes
     direction 1.53537e-011 -4.21894e-011 1   
     length 1.10023   
     axis -90 7.62852e-016 20   XYZ
    dof rx
    limits (-90.0 20.0)
  end
  begin
     id 6 
     name rhipjoint
     direction -0.513884 -0.783789 0.348708   
     length 2.29716  
     axis 0 0 0  XYZ 
  end
  begin
     id 7 
     name rfemur
     direction -0.34202 -0.939693 0   
     length 7.59573   
     axis 0 0 -20   XYZ
    dof rx ry rz
    limits (-160.0 20.0)
           (-70.0 70.0)
           (-70.0 60.0)
  end
  begin
     id 8 
     name rtibia
     direction -0.34202 -0.939693 0   
     length 7.66402   
     axis 0 0 -20   XYZ
    dof rx
    limits (-10.0 170.0)
 end
 begin
     id 9 
     name rfoot
     direction -0.137793 -0.378584 0.915253   
     length 2.27056  
     axis -90 -7.62852e-016 -20   XYZ
    dof rx rz
    limits (-45.0 90.0)
           (-20.0 70.0)
  end
  begin
     id 10 
     name rtoes
     direction -1.53493e-011 -4.22159e-011 1   
     length 1.11766   
     axis -90 -7.62852e-016 -20   XYZ
    dof rx
    limits (-90.0 20.0)
  end
  begin
     id 11 
     name lowerback
     direction -0.00732775 0.998356 -0.05685   
     length 2.16513   
     axis 0 0 0   XYZ
    dof rx ry rz
    limits (-20.0 45.0)
           (-30.0 30.0)
           (-30.0 30.0)
  end
  begin
     id 12 
     name upperback
     direction 0.0218081 0.999627 -0.0164647   
     length 2.16755   
     axis 0 0 0   XYZ
    dof rx ry rz
    limits (-20.0 45.0)
           (-30.0 30.0)
           (-30.0 30.0)
  end
  begin
     id 13 
     name thorax
     direction 0.02365 0.999661 0.0108914   
     length 2.16932   
     axis 0 0 0   XYZ
    dof rx ry rz
    limits (-20.0 45.0)
           (-30.0 30.0)
           (-30.0 30.0)
  end
  begin
     id 14 
     name lowerneck
     direction -0.0523929 0.978385 0.200044   
     length 1.63877   
     axis 0 0 0   XYZ
    dof rx ry rz
    limits (-20.0 45.0)
           (-30.0 30.0)
           (-30.0 30.0)
  end
  begin
     id 15 
     name upperneck
     direction 0.0448674 0.981321 -0.187074   
     length 1.69014   
     axis 0 0 0   XYZ
    dof rx ry rz
    limits (-20.0 45.0)
           (-30.0 30.0)
           (-30.0 30.0)
  end
  begin
     id 16
     name head
     direction 0.0199089 0.996118 -0.0857429  
     length 1.70094  
     axis 0 0 0   XYZ
    dof rx ry rz
    limits (-20.0 45.0)
           (-30.0 30.0)
           (-30.0 30.0)
  end
  begin
     id 17 
     name lclavicle
     direction 0.940366 0.30191 -0.156722  
     length 3.37521  
     axis 0 0 0   XYZ
    dof ry rz
    limits (-20.0 10.0)
           (0.0 20.0)
  end
  begin
     id 18 
     name lhumerus
     direction 1 -4.4897e-011 -1.7911e-027   
     length 5.25287   
     axis 180 -30 -90   XYZ
    dof rx ry rz
    limits (-60.0 90.0)
           (-90.0 90.0)
           (-90.0 90.0)
  end
  begin
     id 19
     name lradius
     direction 1 -4.48951e-011 1.04424e-027   
     length 3.51014   
     axis 180 -30 -90   XYZ
    dof rx
    limits (-10.0 170.0)
  end
  begin
     id 20
     name lwrist
     direction 1 -4.48997e-011 -9.5942e-028   
     length 1.75507   
     axis 8.48502e-016 90 90   XYZ
    dof ry
    limits (-180.0 0.0)
 end
  begin
     id 21 
     name lhand
     direction 1 -4.48831e-011 -1.90777e-027   
     length 0.706179   
     axis 1.22306e-015 90 90   XYZ
    dof rx rz
    limits (-90.0 90.0)
           (-45.0 45.0)
  end
  begin
     id 22 
     name lfingers
     direction 1 -4.49108e-011 -3.85244e-027   
     length 0.569339   
     axis 2.44611e-015 90 90   XYZ
    dof rx
    limits (0.0 90.0)
  end
  begin
     id 23
     name lthumb
     direction 0.707107 -6.34953e-011 0.707107   
     length 0.817461   
     axis -90 45 -1.62303e-014   XYZ
    dof rx rz
    limits (-45.0 45.0)
           (-45.0 45.0)
  end
  begin
     id 24 
     name rclavicle
     direction -0.905329 0.382405 -0.184787   
     length 3.30787  
     axis 0 0 0   XYZ 
    dof ry rz
    limits (-10.0 20.0)
           (-20.0 0.0)
  end
  begin
     id 25 
     name rhumerus
     direction -1 -4.48953e-011 -9.15316e-029  
     length 5.28721   
     axis 180 30 90   XYZ
    dof rx ry rz
    limits (-90.0 60.0)
           (-90.0 90.0)
           (-90.0 90.0)
  end
  begin
     id 26 
     name rradius
     direction -1 -4.48987e-011 9.37824e-028   
     length 3.50544   
     axis 180 30 90   XYZ
    dof rx
    limits (-10.0 170.0)
  end
  begin
     id 27 
     name rwrist
     direction -1 -4.48967e-011 -9.58414e-028   
     length 1.75272   
     axis 8.48502e-016 -90 -90   XYZ
    dof ry
    limits (-180.0 0.0)
  end
  begin
     id 28
     name rhand
     direction -1 -4.48904e-011 -1.91266e-027   
     length 0.884996   
     axis 1.22306e-015 -90 -90   XYZ
    dof rx rz
    limits (-90.0 90.0)
           (-45.0 45.0)
  end
  begin
     id 29
     name rfingers
     direction -1 -4.4909e-011 -3.85015e-027   
     length 0.713507   
     axis 2.44611e-015 -90 -90   XYZ
    dof rx
    limits (0.0 90.0)
  end
  begin
     id 30
     name rthumb
     direction -0.707107 -6.34853e-011 0.707107   
     length 1.02446   
     axis -90 -45 1.62303e-014   XYZ
    dof rx rz
    limits (-45.0 45.0)
           (-45.0 45.0)
  end
:hierarchy
  begin
    root lhipjoint rhipjoint lowerback
    lhipjoint lfemur
    lfemur ltibia
    ltibia lfoot
    lfoot ltoes
    rhipjoint rfemur
    rfemur rtibia
    rtibia rfoot
    rfoot rtoes
    lowerback upperback
    upperback thorax
    thorax lowerneck lclavicle rclavicle
    lowerneck upperneck
    upperneck head
    lclavicle lhumerus
    lhumerus lradius
    lradius lwrist
    lwrist lhand lthumb
    lhand lfingers
    rclavicle rhumerus
    rhumerus rradius
    rradius rwrist
    rwrist rhand rthumb
    rhand rfingers
  end

#!OML:ASF F:\twosubjects\two\Thursday\Session 1\justin.ASF
:FULLY-SPECIFIED
:DEGREES
144
root 10.1415 17.7487 -11.8976 -1.47944 -53.3091 7.36748
lowerback -3.85986 -1.29067 -4.90549
upperback -2.88036 -1.60495 1.72082
thorax -0.624469 -0.734007 4.47719
lowerneck -31.3592 3.63831 -8.38592
upperneck 22.7917 7.50849 5.02299
head 12.1144 3.29436 4.67914
rclavicle -3.69243e-014 -6.36111e-015
rhumerus -38.434 19.7403 -91.8906
rradius 97.4801
rwrist 1.79871
rhand -27.8171 30.4707
rfingers 7.12502
rthumb -1.20923 0.49434
lclavicle -3.69243e-014 -6.36111e-015
lhumerus 36.3512 -10.18 51.7635
lradius 107.202
lwrist -30.0241
lhand -26.7204 46.5373
lfingers 7.12502
lthumb -0.150064 76.517
rfemur -4.93263 -1.20348 5.874
rtibia 22.8479
rfoot -17.1437 -15.811
rtoes -20.3973
lfemur -2.86239 10.3536 -26.2559
ltibia 14.8005
lfoot -13.4693 2.77128
ltoes -8.9846
145
root 10.1398 17.745 -11.9008 -1.5229 -53.4172 7.58781
lowerback -3.97515 -1.21118 -5.05228
upperback -2.86135 -1.48871 1.57188
thorax -0.554338 -0.677196 4.40724
lowerneck -30.5333 4.06341 -7.28445
upperneck 22.1748 7.86461 3.79966
head 11.8113 3.39805 4.04046
rclavicle 6.89286e-014 5.56597e-015
rhumerus -38.3533 19.5297 -92.1058
rradius 97.3453
rwrist 2.09469
rhand -27.949 30.1566
rfingers 7.12502
rthumb -1.33661 0.180991
lclavicle 6.89286e-014 5.56597e-015
lhumerus 35.6844 -10.6417 51.9414
lradius 107.219
lwrist -29.3865
lhand -26.4823 46.1091
lfingers 7.12502
lthumb 0.0799424 76.0888
rfemur -5.09734 -1.14412 5.72363
rtibia 22.7906
rfoot -17.0939 -15.7129
rtoes -20.3764
lfemur -3.04816 10.5919 -26.4047
ltibia 14.8864
lfoot -13.7389 2.69029
ltoes -9.63028
146
root 10.14 17.7449 -11.9057 -1.45263 -53.5012 7.63614
lowerback -4.07345 -1.17053 -5.02989
upperback -2.86221 -1.43065 1.57517
thorax -0.507296 -0.649851 4.39845
lowerneck -29.5944 4.39077 -6.4722
upperneck 21.5102 8.26983 2.36948
head 11.4805 3.4727 3.3851
rclavicle -2.28602e-014 7.95139e-016
rhumerus -38.3542 19.5828 -92.0972
rradius 97.3013
rwrist 2.03194
rhand -27.8219 30.0297
rfingers 7.12502
rthumb -1.21392 0.0533708
lclavicle -2.28602e-014 7.95139e-016
lhumerus 34.8956 -10.9948 52.4001
lradius 107.274
lwrist -28.8466
lhand -26.2757 44.737
lfingers 7.12502
lthumb 0.279475 74.7165
rfemur -5.22994 -1.01922 5.7021
rtibia 22.7711
rfoot -17.1734 -15.7225
rtoes -19.936
lfemur -3.16989 10.7279 -26.4355
ltibia 14.8766
lfoot -13.7018 2.63919
ltoes -9.38148
147
root 10.1447 17.7523 -11.9023 -1.34696 -53.3786 7.44992
lowerback -4.04193 -1.11834 -4.79852
upperback -2.75845 -1.36651 1.50535
thorax -0.430504 -0.624802 4.19689
lowerneck -28.7038 4.67296 -5.33695
upperneck 20.7923 8.52733 0.75974
head 11.1834 3.48887 2.60532
rclavicle 6.02318e-014 -1.35174e-014
rhumerus -38.2605 19.3404 -92.0941
rradius 97.2688
rwrist 1.93277
rhand -28.0347 30.1617
rfingers 7.12502
rthumb -1.41943 0.18668
lclavicle 6.02318e-014 -1.35174e-014
lhumerus 34.4145 -11.5556 52.5483
lradius 107.333
lwrist -28.2206
lhand -25.9637 43.8751
lfingers 7.12502
lthumb 0.58084 73.8541
rfemur -5.17303 -1.08365 5.82589
rtibia 22.8544
rfoot -17.218 -15.8005
rtoes -20.1457
lfemur -3.08854 10.6813 -26.3073
ltibia 14.6826
lfoot -13.3807 2.42372
ltoes -8.92991
148
root 10.1445 17.7557 -11.8974 -1.47408 -53.3026 7.59243
lowerback -4.08495 -0.989814 -4.81644
upperback -2.66133 -1.18952 1.38581
thorax -0.327285 -0.54093 4.08841
lowerneck -27.7785 4.86953 -4.35302
upperneck 20.0349 8.67541 -0.646632
head 10.8599 3.47965 1.91729
rclavicle 3.9583e-014 3.97569e-015
rhumerus -38.1325 18.8902 -92.0179
rradius 97.1659
rwrist 1.91394
rhand -28.3394 29.9251
rfingers 7.12502
rthumb -1.71371 -0.0477184
lclavicle 3.9583e-014 3.97569e-015
lhumerus 33.9343 -12.5011 52.526
lradius 107.467
lwrist -27.3803
lhand -25.8419 44.7359
lfingers 7.12502
lthumb 0.698425 74.7146
rfemur -5.15824 -1.15738 5.72331
rtibia 22.9297
rfoot -17.2287 -15.8126
rtoes -20.4381
lfemur -3.02108 10.6486 -26.3927
ltibia 14.467
lfoot -13.3467 2.21357
ltoes -10.4217
